<?xml version="1.0" encoding="utf-8"?>
<!-- Generator: Adobe Illustrator 16.0.4, SVG Export Plug-In . SVG Version: 6.00 Build 0)  -->
<!DOCTYPE svg PUBLIC "-//W3C//DTD SVG 1.1//EN" "http://www.w3.org/Graphics/SVG/1.1/DTD/svg11.dtd">
<svg version="1.1" id="Layer_1" xmlns="http://www.w3.org/2000/svg" xmlns:xlink="http://www.w3.org/1999/xlink" x="0px" y="0px"
	 width="252px" height="180px" viewBox="0 0 252 180" enable-background="new 0 0 252 180" xml:space="preserve">
<g>
	<g>
		<path fill="none" d="M227.959,91.38c0.043-0.066,0.062-0.137,0.062-0.217c0-0.113-0.039-0.205-0.124-0.277
			c-0.082-0.072-0.214-0.111-0.392-0.111h-0.763v0.795h0.687c0.146,0,0.256-0.016,0.342-0.045
			C227.853,91.495,227.917,91.446,227.959,91.38z"/>
		<path fill="none" d="M227.287,89.69c-1.195,0-2.165,0.971-2.165,2.166c0,1.195,0.97,2.164,2.165,2.164
			c1.192,0,2.165-0.969,2.165-2.164C229.452,90.662,228.479,89.69,227.287,89.69z M228.147,92.911l-0.318-0.5
			c-0.095-0.145-0.172-0.252-0.229-0.328c-0.062-0.08-0.118-0.135-0.165-0.166c-0.046-0.027-0.093-0.049-0.145-0.061
			c-0.035-0.006-0.096-0.01-0.179-0.01h-0.369v1.064h-0.322v-2.4h1.073c0.213,0,0.378,0.02,0.488,0.064
			c0.112,0.043,0.201,0.119,0.271,0.228c0.064,0.105,0.098,0.229,0.098,0.359c0,0.17-0.054,0.316-0.166,0.434
			c-0.11,0.115-0.282,0.189-0.515,0.223c0.087,0.039,0.15,0.08,0.193,0.117c0.095,0.088,0.183,0.195,0.268,0.32l0.42,0.654H228.147z
			"/>
		<path d="M68.001,84.85v-5.454c0-1.183-0.732-1.77-2.197-1.77c-0.984,0-1.751-0.006-2.286,0.048H52.933
			c-1.16,0-2.112,0.995-2.112,2.211c0,1.215,0.952,2.21,2.112,2.21h8.804v2.933c0,0.88-0.964,1.571-2.882,2.086
			c-1.522,0.411-2.969,0.611-4.317,0.611h-14.16c-5.647,0-8.472-0.935-8.472-2.807V71.121c0-1.869,3.374-2.803,10.111-2.803
			c0.202,0,0.481,0.007,0.819,0.015c0.337,0.008,0.722,0.015,1.157,0.029c0.019,0.018,0.115,0.024,0.279,0.024h1.726
			c1.522,0,2.284-0.688,2.284-2.055c0-1.362-0.762-2.041-2.284-2.041H40.35c-3.413,0-6.526,0.449-9.349,1.338
			c-3.576,1.189-5.359,3.021-5.359,5.502v13.811c0,2.583,1.754,4.459,5.252,5.636c2.544,0.857,5.676,1.291,9.407,1.291h14.225
			c3.471,0,6.411-0.482,8.82-1.431C66.449,89.216,68.001,87.354,68.001,84.85z"/>
		<path d="M171.442,89.958V76.772c0-1.858,2.256-2.741,6.823-2.741h1.101c0.463,0.046,0.808,0.046,1.042,0.046
			c1.732,0,2.659-0.603,2.659-1.81c0-1.486-0.752-2.228-2.255-2.228c-4.396,0-7.692,0.276-9.89,0.929
			c-3.644,1.02-5.437,2.924-5.437,5.804v13.187c0,1.205,0.695,1.808,2.083,1.808c1.387,0,2.253-0.045,2.601-0.137
			C170.981,91.396,171.442,90.841,171.442,89.958z"/>
		<path d="M119.41,91.663c1.566,0,2.493-0.047,2.725-0.141c0.928-0.232,1.334-0.789,1.334-1.669V81.77h21.85
			c3.767,0,6.953-0.417,9.619-1.298c3.419-1.256,5.157-3.252,5.157-5.992v-4.318c0-2.184-1.795-3.856-5.447-4.97
			c-2.49-0.744-5.506-1.162-9.041-1.162H119.41c-1.447,0-2.2,0.603-2.2,1.766v24.059C117.21,91.058,117.963,91.663,119.41,91.663z
			 M123.469,68.116h22.196c5.447,0,8.172,0.836,8.172,2.415v3.762c0,2.229-2.725,3.39-8.172,3.39h-22.196V68.116z"/>
		<path d="M227.864,91.937c-0.043-0.037-0.106-0.078-0.193-0.117c0.232-0.033,0.404-0.107,0.515-0.223
			c0.112-0.117,0.166-0.264,0.166-0.434c0-0.131-0.033-0.254-0.098-0.359c-0.07-0.109-0.159-0.185-0.271-0.228
			c-0.11-0.045-0.275-0.064-0.488-0.064h-1.073v2.4h0.322v-1.064h0.369c0.083,0,0.144,0.004,0.179,0.01
			c0.052,0.012,0.099,0.033,0.145,0.061c0.047,0.031,0.104,0.086,0.165,0.166c0.057,0.076,0.134,0.184,0.229,0.328l0.318,0.5h0.404
			l-0.42-0.654C228.047,92.132,227.959,92.024,227.864,91.937z M227.43,91.569h-0.687v-0.795h0.763c0.178,0,0.31,0.039,0.392,0.111
			c0.085,0.072,0.124,0.164,0.124,0.277c0,0.08-0.02,0.15-0.062,0.217c-0.042,0.066-0.106,0.115-0.188,0.145
			C227.686,91.554,227.575,91.569,227.43,91.569z"/>
		<path d="M227.287,89.315c-1.402,0-2.541,1.137-2.541,2.541c0,1.402,1.139,2.541,2.541,2.541c1.401,0,2.54-1.139,2.54-2.541
			C229.827,90.453,228.688,89.315,227.287,89.315z M227.287,94.021c-1.195,0-2.165-0.969-2.165-2.164
			c0-1.195,0.97-2.166,2.165-2.166c1.192,0,2.165,0.971,2.165,2.166C229.452,93.052,228.479,94.021,227.287,94.021z"/>
		<rect x="111.921" y="98.551" width="23.843" height="18.234"/>
		<rect x="141.01" y="98.553" width="23.843" height="18.234"/>
		<g>
			<rect x="199.186" y="98.554" fill-rule="evenodd" clip-rule="evenodd" width="23.845" height="18.234"/>
		</g>
		<rect x="170.099" y="98.55" width="23.841" height="18.234"/>
		<path d="M35.699,108.308c0.902-0.172,1.383-0.928,1.425-2.291c-0.098-1.619-0.991-2.475-2.683-2.582h-5.303v9.998h5.778
			c1.578,0,2.393-0.793,2.393-2.621C37.309,109.524,36.848,108.681,35.699,108.308z M31.058,105.134l3.031-0.002
			c0.646,0.131,0.992,0.609,1.033,1.34c0.007,0.803-0.385,1.211-1.196,1.197l-2.868-0.002V105.134z M34.128,111.858h-3.07v-2.699
			l3.248,0.002c0.693,0.143,1.062,0.6,1.106,1.395C35.419,111.435,34.998,111.874,34.128,111.858z"/>
		<path d="M42.025,106.384h-1.753c-1.307,0-2.374,1.051-2.374,2.338v2.375c0,1.283,1.067,2.334,2.374,2.334h1.753
			c1.305,0,2.371-1.051,2.371-2.334v-0.043h-1.711c0,0.799-0.282,1.074-0.887,1.074c-0.358,0-0.716,0.02-1.054,0.02
			c-0.92,0-1.194-0.666-1.194-2.104h4.846v-1.322C44.396,107.435,43.33,106.384,42.025,106.384z M42.371,109.149h-2.826
			c0-1.043,0.506-1.578,1.676-1.57c1.059-0.029,1.444,0.488,1.444,1.568L42.371,109.149z"/>
		<path d="M53.557,106.985c-0.014-0.012-0.029-0.023-0.044-0.035c-0.061-0.053-0.127-0.104-0.198-0.152
			c-0.061-0.037-0.124-0.076-0.188-0.111c-0.031-0.018-0.065-0.031-0.098-0.045c-0.059-0.029-0.119-0.053-0.181-0.076
			c-0.04-0.016-0.079-0.029-0.121-0.043c-0.06-0.018-0.122-0.033-0.185-0.047c-0.045-0.012-0.088-0.021-0.135-0.029
			c-0.103-0.02-0.21-0.033-0.32-0.041l-2.151-0.021c-0.372,0.016-1.026,0.117-1.473,0.551c-0.056,0.057-0.11,0.115-0.156,0.18
			c-0.004,0.006-0.01,0.01-0.014,0.018c-0.245,0.344-0.347,0.787-0.311,1.328h1.851c-0.02-0.637,0.433-0.959,1.347-0.955
			c0.756,0.016,1.326,0.246,1.326,0.883v1.545c-0.289-0.336-0.794-0.588-1.436-0.723c-0.309-0.059-0.844-0.127-1.409-0.039
			c-1.381,0.273-2.045,1.053-1.989,2.348c0.063,1.271,0.97,1.945,2.72,2.02c0.909,0.041,1.603-0.227,2.095-0.83v0.734h0.029h1.706
			h0.013v-4.68v-0.209c-0.014-0.381-0.105-0.688-0.111-0.707C54.03,107.591,53.861,107.265,53.557,106.985z M52.477,111.521
			c-0.001,0.01-0.002,0.016-0.003,0.023c-0.038,0.283-0.16,0.5-0.359,0.656c-0.152,0.109-0.357,0.176-0.5,0.215
			c-0.307,0.064-0.58,0.1-0.822,0.105c-0.353-0.004-1.089-0.09-1.306-0.686c-0.007-0.023-0.018-0.041-0.024-0.066
			c-0.092-0.354-0.033-0.65,0.171-0.891c0.266-0.291,0.637-0.406,0.924-0.451c0.786-0.09,1.35,0.043,1.701,0.387
			c0.183,0.188,0.228,0.418,0.225,0.604C52.48,111.45,52.481,111.487,52.477,111.521z"/>
		<polygon points="101.61,113.388 104.187,113.388 104.898,110.577 102.321,110.577 		"/>
		<path d="M89.756,105.44c0.173-2.998-3.362-2.775-3.469-2.775l-4.961,0.002l-2.381,10.76h2.738l0.851-3.957h0.01v-0.004h1.651
			c0.009,0,1.553,2.916,1.911,3.938h3.224c-1.279-2.049-1.613-2.912-2.582-4.523C88.614,108.179,89.632,107.622,89.756,105.44z
			 M84.97,107.524h-1.898l0.688-2.867h1.98C87.57,104.687,86.731,107.524,84.97,107.524z"/>
		<polygon points="67.153,102.667 66.277,106.634 62.243,106.63 63.15,102.667 60.312,102.667 57.896,113.399 60.695,113.399 
			61.768,108.7 65.787,108.704 64.719,113.399 67.512,113.399 69.972,102.667 		"/>
		<polygon points="74.39,104.657 79.301,104.663 79.754,102.677 72.027,102.667 69.612,113.437 77.298,113.437 77.775,111.343 
			72.846,111.327 73.383,108.688 78.164,108.688 78.606,106.603 73.924,106.616 		"/>
		<path d="M96.129,102.515c-1.064,0.109-1.873,0.461-2.233,0.648c-0.915,0.502-1.578,1.168-1.874,1.506
			c-0.746,0.891-1.378,1.99-1.68,3.246c-0.244,1.021-0.186,1.959-0.022,2.729c0.162,0.641,0.501,1.402,1.21,2.01
			c0.189,0.15,0.384,0.287,0.571,0.402c0.645,0.393,1.531,0.592,2.657,0.592c0.271,0,0.534-0.006,0.792-0.025
			c0.032-0.002,1.064-0.07,2.142-0.539c0.19-0.086,0.372-0.18,0.544-0.279c0.012-0.008,0.024-0.016,0.037-0.023
			c1.079-0.643,1.776-1.547,2.171-2.193c0.393-0.676,0.73-1.465,0.952-2.396c0.006-0.018,0.008-0.033,0.012-0.053
			C102.372,102.226,97.091,102.429,96.129,102.515z M98.639,108.007c-0.178,0.746-0.495,1.455-0.823,2.002
			c-0.814,1.264-1.885,1.514-2.355,1.562c-1.368,0.076-1.944-0.629-2.184-1.203c-0.01-0.021-0.02-0.047-0.029-0.07
			c-0.005-0.016-0.01-0.029-0.016-0.045c-0.379-1.021-0.104-2.195-0.104-2.195l0.001,0.002c0.015-0.08,0.029-0.16,0.049-0.24
			c0.128-0.535,0.353-0.959,0.604-1.404c0.115-0.188,0.494-0.783,0.932-1.152c0.235-0.203,0.519-0.4,0.839-0.527
			c0.007-0.004,0.014-0.006,0.021-0.008c0.031-0.012,0.064-0.023,0.097-0.035c0.157-0.051,0.313-0.088,0.467-0.119
			c0.212-0.037,0.859-0.105,1.482,0.242c0.167,0.104,0.32,0.227,0.454,0.355c0.097,0.105,0.475,0.547,0.622,1.242
			C98.78,106.892,98.787,107.394,98.639,108.007z"/>
	</g>
	<path d="M210.91,70.04h-1.203h-3.795h-0.281h-3.611h-1.668c-8.791,0-13.186,2.274-13.186,6.918v3.945v0v3.945
		c0,4.645,4.395,6.918,13.186,6.918h1.668h3.611h0.281h3.795h1.203c8.789,0,13.184-2.273,13.184-6.918v-3.945v0v-3.945
		C224.094,72.314,219.699,70.04,210.91,70.04z M218.156,80.904v4.263c0,1.717-2.504,2.559-7.42,2.559l-4.824-0.002v0.002h-0.281
		v-0.002l-5.105,0.002c-4.916,0-7.422-0.842-7.422-2.559v-4.263v0V76.64c0-1.717,2.506-2.559,7.422-2.559l5.105,0.002v-0.002h0.281
		v0.002l4.824-0.002c4.916,0,7.42,0.842,7.42,2.559V80.904L218.156,80.904z"/>
</g>
<path d="M97.829,70.04h-1.203h-3.795H92.55h-3.611h-1.668c-8.791,0-13.186,2.274-13.186,6.918v3.945v0v3.945
	c0,4.644,4.395,6.917,13.186,6.917h1.668h3.611h0.281h3.795h1.203c8.789,0,13.184-2.273,13.184-6.917v-3.945v0v-3.945
	C111.013,72.314,106.618,70.04,97.829,70.04z M105.075,80.904v4.264c0,1.717-2.504,2.559-7.42,2.559l-4.824-0.002v0.002H92.55
	v-0.002l-5.105,0.002c-4.916,0-7.422-0.842-7.422-2.559v-4.264v0V76.64c0-1.717,2.506-2.559,7.422-2.559l5.105,0.002v-0.002h0.281
	v0.002l4.824-0.002c4.916,0,7.42,0.842,7.42,2.559V80.904L105.075,80.904z"/>
</svg>
