<?xml version="1.0" encoding="utf-8"?>
<!-- Generator: Adobe Illustrator 16.0.4, SVG Export Plug-In . SVG Version: 6.00 Build 0)  -->
<!DOCTYPE svg PUBLIC "-//W3C//DTD SVG 1.1//EN" "http://www.w3.org/Graphics/SVG/1.1/DTD/svg11.dtd">
<svg version="1.1" id="Capa_1" xmlns="http://www.w3.org/2000/svg" xmlns:xlink="http://www.w3.org/1999/xlink" x="0px" y="0px"
	 width="438.536px" height="438.536px" viewBox="0 0 438.536 438.536" enable-background="new 0 0 438.536 438.536"
	 xml:space="preserve">
<g>
	<path d="M421.981,16.562C410.942,5.519,397.711,0,382.297,0H56.248C40.83,0,27.604,5.521,16.561,16.562
		C5.52,27.6,0.001,40.828,0.001,56.243V382.29c0,15.414,5.518,28.645,16.56,39.684c11.043,11.039,24.272,16.562,39.687,16.562
		h326.045c15.41,0,28.645-5.523,39.684-16.562c11.045-11.039,16.559-24.27,16.559-39.684V56.243
		C438.534,40.825,433.022,27.604,421.981,16.562z M157.462,158.025c17.224-16.652,37.924-24.982,62.097-24.982
		c24.359,0,45.152,8.33,62.381,24.982c17.229,16.655,25.838,36.785,25.838,60.386c0,23.597-8.609,43.729-25.838,60.378
		c-17.229,16.66-38.014,24.987-62.381,24.987c-24.172,0-44.87-8.336-62.097-24.987c-17.228-16.651-25.841-36.781-25.841-60.378
		C131.621,194.81,140.234,174.681,157.462,158.025z M388.866,370.588c0,4.945-1.719,9.084-5.143,12.416
		c-3.432,3.33-7.518,4.996-12.281,4.996h-305.2c-4.948,0-9.091-1.666-12.419-4.996c-3.333-3.325-4.998-7.471-4.998-12.416V185.575
		H89.08c-3.805,11.993-5.708,24.462-5.708,37.402c0,36.553,13.322,67.715,39.969,93.511c26.65,25.786,58.721,38.685,96.217,38.685
		c24.744,0,47.583-5.901,68.526-17.703c20.938-11.807,37.486-27.838,49.676-48.11c12.184-20.271,18.275-42.399,18.275-66.38
		c0-12.94-1.91-25.406-5.715-37.402h38.547V370.59h-0.002V370.588L388.866,370.588z M388.866,115.626
		c0,5.52-1.904,10.184-5.717,13.99c-3.805,3.809-8.467,5.711-13.988,5.711h-49.676c-5.518,0-10.186-1.903-13.99-5.711
		c-3.807-3.806-5.709-8.47-5.709-13.99V68.522c0-5.33,1.902-9.945,5.709-13.848c3.805-3.901,8.473-5.854,13.99-5.854h49.676
		c5.521,0,10.184,1.952,13.988,5.854c3.812,3.903,5.717,8.518,5.717,13.848V115.626z"/>
</g>
</svg>
