<?xml version="1.0" encoding="utf-8"?>
<!-- Generator: Adobe Illustrator 16.0.4, SVG Export Plug-In . SVG Version: 6.00 Build 0)  -->
<!DOCTYPE svg PUBLIC "-//W3C//DTD SVG 1.1//EN" "http://www.w3.org/Graphics/SVG/1.1/DTD/svg11.dtd">
<svg version="1.1" id="Capa_1" xmlns="http://www.w3.org/2000/svg" xmlns:xlink="http://www.w3.org/1999/xlink" x="0px" y="0px"
	 width="510px" height="510px" viewBox="0 0 510 510" enable-background="new 0 0 510 510" xml:space="preserve">
<g>
	<path d="M465.92,148.313c-3.978,183.065-119.39,310.414-294.495,318.375C99.791,470.667,48.055,446.79,0.299,418.93
		c51.736,7.961,119.39-11.938,155.208-43.775c-51.737-3.979-83.574-31.838-99.492-75.613c15.918,3.979,31.837,0,43.776,0
		c-47.756-15.919-79.594-43.775-83.573-107.45c11.939,7.958,27.857,11.939,43.776,11.939C24.177,184.13,0.299,108.516,28.157,60.76
		c51.736,55.716,115.41,103.472,218.882,111.432C219.182,60.76,370.412,1.064,430.107,76.679
		c27.856-3.979,47.756-15.919,67.653-23.878c-7.959,27.857-23.88,43.776-43.777,59.695c19.897-3.98,39.797-7.959,55.718-15.919
		C505.717,116.476,485.818,132.395,465.92,148.313z"/>
</g>
</svg>
